<mxfile host="Electron" modified="2024-06-11T17:36:43.850Z" agent="Mozilla/5.0 (X11; Linux x86_64) AppleWebKit/537.36 (KHTML, like Gecko) draw.io/24.4.13 Chrome/124.0.6367.207 Electron/30.0.6 Safari/537.36" etag="7DSoHl7vFlim1Vf6p_M5" version="24.4.13" type="device">
  <diagram name="PÃ¡gina-1" id="0R84nbDcEIhOmc_J-1IX">
    <mxGraphModel dx="880" dy="481" grid="1" gridSize="10" guides="1" tooltips="1" connect="1" arrows="1" fold="1" page="1" pageScale="1" pageWidth="827" pageHeight="583" math="0" shadow="0">
      <root>
        <mxCell id="0" />
        <mxCell id="1" parent="0" />
        <mxCell id="dmVsvcYthLELyO5Nhqn--3" value="switch" style="ellipse;whiteSpace=wrap;html=1;fillColor=none;strokeColor=default;strokeWidth=3;" parent="1" vertex="1">
          <mxGeometry x="290" y="320" width="70" height="70" as="geometry" />
        </mxCell>
        <mxCell id="rC6wHBCuhlb4_4a9kOSW-2" value="switch" style="ellipse;whiteSpace=wrap;html=1;fillColor=none;strokeColor=default;strokeWidth=3;" vertex="1" parent="1">
          <mxGeometry x="379" y="460" width="70" height="70" as="geometry" />
        </mxCell>
        <mxCell id="rC6wHBCuhlb4_4a9kOSW-3" value="switch" style="ellipse;whiteSpace=wrap;html=1;fillColor=none;strokeColor=default;strokeWidth=3;" vertex="1" parent="1">
          <mxGeometry x="570" y="470" width="70" height="70" as="geometry" />
        </mxCell>
        <mxCell id="rC6wHBCuhlb4_4a9kOSW-4" value="endNode" style="rounded=0;whiteSpace=wrap;html=1;fillColor=none;strokeColor=default;strokeWidth=3;" vertex="1" parent="1">
          <mxGeometry x="160" y="415" width="60" height="40" as="geometry" />
        </mxCell>
        <mxCell id="rC6wHBCuhlb4_4a9kOSW-6" value="" style="endArrow=none;html=1;rounded=0;entryX=1;entryY=0.5;entryDx=0;entryDy=0;exitX=0;exitY=1;exitDx=0;exitDy=0;fillColor=#dae8fc;strokeColor=#6c8ebf;strokeWidth=3;" edge="1" parent="1" source="dmVsvcYthLELyO5Nhqn--3" target="rC6wHBCuhlb4_4a9kOSW-4">
          <mxGeometry width="50" height="50" relative="1" as="geometry">
            <mxPoint x="300" y="185" as="sourcePoint" />
            <mxPoint x="230" y="200" as="targetPoint" />
          </mxGeometry>
        </mxCell>
        <mxCell id="rC6wHBCuhlb4_4a9kOSW-9" value="" style="endArrow=none;html=1;rounded=0;exitX=1;exitY=0.5;exitDx=0;exitDy=0;entryX=0;entryY=0.5;entryDx=0;entryDy=0;" edge="1" parent="1" source="dmVsvcYthLELyO5Nhqn--3" target="rC6wHBCuhlb4_4a9kOSW-12">
          <mxGeometry width="50" height="50" relative="1" as="geometry">
            <mxPoint x="390" y="520" as="sourcePoint" />
            <mxPoint x="479.02" y="364.99" as="targetPoint" />
          </mxGeometry>
        </mxCell>
        <mxCell id="rC6wHBCuhlb4_4a9kOSW-10" value="" style="endArrow=none;html=1;rounded=0;exitX=1;exitY=1;exitDx=0;exitDy=0;entryX=0.243;entryY=0.043;entryDx=0;entryDy=0;entryPerimeter=0;strokeWidth=3;fillColor=#dae8fc;strokeColor=#6c8ebf;" edge="1" parent="1" source="dmVsvcYthLELyO5Nhqn--3" target="rC6wHBCuhlb4_4a9kOSW-2">
          <mxGeometry width="50" height="50" relative="1" as="geometry">
            <mxPoint x="390" y="520" as="sourcePoint" />
            <mxPoint x="440" y="470" as="targetPoint" />
          </mxGeometry>
        </mxCell>
        <mxCell id="rC6wHBCuhlb4_4a9kOSW-11" value="" style="endArrow=none;html=1;rounded=0;entryX=0;entryY=0.5;entryDx=0;entryDy=0;exitX=1;exitY=0.5;exitDx=0;exitDy=0;fillColor=#dae8fc;strokeColor=#6c8ebf;strokeWidth=3;" edge="1" parent="1" source="rC6wHBCuhlb4_4a9kOSW-2" target="rC6wHBCuhlb4_4a9kOSW-3">
          <mxGeometry width="50" height="50" relative="1" as="geometry">
            <mxPoint x="390" y="520" as="sourcePoint" />
            <mxPoint x="440" y="470" as="targetPoint" />
          </mxGeometry>
        </mxCell>
        <mxCell id="rC6wHBCuhlb4_4a9kOSW-12" value="endNode" style="rounded=0;whiteSpace=wrap;html=1;fillColor=none;strokeColor=default;strokeWidth=3;" vertex="1" parent="1">
          <mxGeometry x="610" y="335" width="60" height="40" as="geometry" />
        </mxCell>
        <mxCell id="rC6wHBCuhlb4_4a9kOSW-14" value="" style="endArrow=none;html=1;rounded=0;entryX=0.5;entryY=1;entryDx=0;entryDy=0;exitX=1;exitY=0;exitDx=0;exitDy=0;fillColor=#dae8fc;strokeColor=#6c8ebf;strokeWidth=3;" edge="1" parent="1" source="rC6wHBCuhlb4_4a9kOSW-3" target="rC6wHBCuhlb4_4a9kOSW-12">
          <mxGeometry width="50" height="50" relative="1" as="geometry">
            <mxPoint x="560" y="385" as="sourcePoint" />
            <mxPoint x="710" y="385" as="targetPoint" />
          </mxGeometry>
        </mxCell>
        <mxCell id="rC6wHBCuhlb4_4a9kOSW-15" value="0.98" style="text;html=1;align=center;verticalAlign=middle;whiteSpace=wrap;rounded=0;" vertex="1" parent="1">
          <mxGeometry x="220" y="375" width="60" height="30" as="geometry" />
        </mxCell>
        <mxCell id="rC6wHBCuhlb4_4a9kOSW-16" value="0.8" style="text;html=1;align=center;verticalAlign=middle;whiteSpace=wrap;rounded=0;" vertex="1" parent="1">
          <mxGeometry x="460" y="360" width="60" height="30" as="geometry" />
        </mxCell>
        <mxCell id="rC6wHBCuhlb4_4a9kOSW-17" value="0.95" style="text;html=1;align=center;verticalAlign=middle;whiteSpace=wrap;rounded=0;" vertex="1" parent="1">
          <mxGeometry x="330" y="420" width="60" height="30" as="geometry" />
        </mxCell>
        <mxCell id="rC6wHBCuhlb4_4a9kOSW-18" value="0.98" style="text;html=1;align=center;verticalAlign=middle;whiteSpace=wrap;rounded=0;" vertex="1" parent="1">
          <mxGeometry x="470" y="470" width="60" height="30" as="geometry" />
        </mxCell>
        <mxCell id="rC6wHBCuhlb4_4a9kOSW-20" value="0.97" style="text;html=1;align=center;verticalAlign=middle;whiteSpace=wrap;rounded=0;" vertex="1" parent="1">
          <mxGeometry x="630" y="420" width="60" height="30" as="geometry" />
        </mxCell>
      </root>
    </mxGraphModel>
  </diagram>
</mxfile>
